<?xml version="1.0" encoding="utf-8"?>
<!-- Generator: Adobe Illustrator 18.1.0, SVG Export Plug-In . SVG Version: 6.00 Build 0)  -->
<svg version="1.1" id="Layer_1" xmlns="http://www.w3.org/2000/svg" xmlns:xlink="http://www.w3.org/1999/xlink" x="0px" y="0px"
	 viewBox="0 0 400 400" enable-background="new 0 0 400 400" xml:space="preserve">
<g>
	<path d="M286,159.8c1-21.2-5.2-38.2-13.6-52c-8.4-13.6-23.6-27.2-40.2-25.6c-10,1-14.2,4.6-16.6,10c-2.2,5.4-2.8,17.4-2.8,22.6
		c0,9.2,0,127.8,0,127.8c24.2-3.2,46.6-17.2,60.6-39.4C281.2,190.8,285.4,174.2,286,159.8z"/>
	<path d="M200.4,2C92,2,4.2,88.4,4.2,195.2c0,99,75.4,180.4,173,191.6c4.8,0.2,7.6-0.2,10-2.2c1.8-1.6,2.6-4.2,2.6-6.4l0.2-115
		c-52.8-5.4-95-49-94.4-102.4c0.6-51,35.8-92,82.4-101.6c1.2-0.2,2-0.4,2.8,0.2c0.8,0.8,0.4,2.4,0.4,2.4l-3.6,17c0,0-0.2,1-0.6,1.4
		c-0.4,0.4-0.8,0.4-1.2,0.6c-20.2,6.4-38.6,20-47.4,36.6c-7.4,13.8-12.2,24.2-12.2,43c0,40.4,31.8,77.6,73.8,82.6V114.8
		c0-13.4,0.6-29,8.6-39.6c6.2-8.4,16.8-13.4,33.6-13.4c24.2,0,53.2,17.8,67.8,56.2c4.4,11.6,7,26.4,7,42.2
		c-0.2,53.2-41.6,97-94.2,102.6L212.7,378c0,3,1,5.4,2.8,6.6c2.2,1.6,4,2.4,9.8,1.8c2.2-0.2,6.4-0.8,8.2-1
		C326,369.8,396.4,290.6,396.4,195C396.4,88.4,308.6,2,200.4,2z"/>
</g>
</svg>
